<?xml version="1.0" standalone="no"?><!DOCTYPE svg PUBLIC "-//W3C//DTD SVG 1.1//EN" "http://www.w3.org/Graphics/SVG/1.1/DTD/svg11.dtd"><svg t="1715666747417" class="icon" viewBox="0 0 1024 1024" version="1.1" xmlns="http://www.w3.org/2000/svg" p-id="908" xmlns:xlink="http://www.w3.org/1999/xlink" width="1024" height="1024"><path d="M500.51 31.988c-0.442 0.88-0.89 1.781-1.35 2.699a287.678 287.678 0 0 0 9.785 27.668 36.388 36.388 0 0 1 4.723 8.098c6.649 9.005 15.31 15.304 25.98 18.894a291.772 291.772 0 0 1 24.293 5.062 6.706 6.706 0 0 1 3.375 1.687c-0.788 0.224-1.575 0.45-2.363 0.676-38.196-4.004-76.211-3.104-114.043 2.699-10.382-0.161-18.93-4.212-25.644-12.148a98.202 98.202 0 0 0-14.508-18.558c-6.54-5.643-13.063-11.265-19.57-16.871-2.478-0.798-4.05-0.01-4.723 2.363 2.955 17.444 12.065 30.492 27.331 39.14 6.875 3.04 13.737 6.079 20.582 9.109a1034.846 1034.846 0 0 0-54.996 15.859 105.975 105.975 0 0 1-26.656-9.449 285.204 285.204 0 0 1-14.848-13.16c-9.099-7.137-19.224-12.312-30.367-15.519-17.739-2.504-35.061-0.93-51.96 4.723a194.172 194.172 0 0 0-34.754 17.883c-1.375 2.588-1.151 5.064 0.676 7.422a759.076 759.076 0 0 0 17.207 12.82c10.871 6.9 22.569 11.734 35.089 14.508a94.032 94.032 0 0 0 27.668-3.375 938.11 938.11 0 0 1 41.164-16.871 24.536 24.536 0 0 1 9.109 0.336 208.52 208.52 0 0 0 15.859 4.723 1973.91 1973.91 0 0 0-24.63 12.148c-23.744 10.866-46.351 24.585-67.82 41.164a126.547 126.547 0 0 1-24.293 7.422c-15.399 2.943-29.571 0.58-42.512-7.086-5.134-4.23-10.308-8.5-15.519-12.82-2.108-1.139-4.244-1.251-6.41-0.336a6.244 6.244 0 0 0 0 4.05 78.29 78.29 0 0 1 5.734 15.859 38.63 38.63 0 0 0 6.074 7.422c7.358 3.924 15.232 6.283 23.617 7.086a917.857 917.857 0 0 1 34.415-6.41 306.094 306.094 0 0 0-42.512 41.164c-9.99 8.225-21.459 12.947-34.415 14.172-7.684 0.21-15.33-0.015-22.945-0.676a464.705 464.705 0 0 0-18.219 2.699c-16.47 6.125-30.081 16.134-40.828 30.031a405.4 405.4 0 0 0-26.992 47.238c-1.979 4.368-0.63 6.842 4.05 7.422a75.333 75.333 0 0 0 9.785-2.023 553.873 553.873 0 0 1 32.39-11.808 781.83 781.83 0 0 1 23.617-10.797c12.21-7.601 22.559-17.162 31.043-28.679a236.689 236.689 0 0 0 11.808-20.918c4.338-4.212 9.396-7.022 15.183-8.433a493.054 493.054 0 0 0-27.668 39.476c-20.562 34.65-36.421 71.088-47.574 109.32a187.258 187.258 0 0 0-3.711 18.219c2.905 0.9 5.829 1.8 8.773 2.699a22.185 22.185 0 0 0 4.723-2.023 2461.44 2461.44 0 0 1 3.711-9.449 199.2 199.2 0 0 1 7.422-26.992 889.707 889.707 0 0 0 12.148-32.39c0.249-0.95 0.81-1.626 1.687-2.023a591.673 591.673 0 0 0 3.711 31.715 510.122 510.122 0 0 0 5.398 16.871 118.649 118.649 0 0 0 8.098 14.848c2.773 4.025 5.696 4.248 8.773 0.676-0.231-13.068-2.931-25.665-8.098-37.789a149.198 149.198 0 0 1-10.121-20.918c-0.45-3.138-0.786-6.285-1.012-9.449 0.607-7.164 2.07-13.91 4.387-20.246 19.995-38.69 45.524-73.108 76.591-103.246 0.224 0.563 0.45 1.124 0.676 1.687a142.476 142.476 0 0 0-3.711 10.461 95.164 95.164 0 0 0-6.41 11.133c-1.52 4.837-3.091 9.336-4.723 13.496a74.9 74.9 0 0 0-1.012 26.656c4.678 17.178 10.528 34.273 17.547 51.286 2.068 3.614 5.103 4.737 9.109 3.375 7.476-4.629 13.438-10.704 17.883-18.219 13.283-25.682 11.931-50.427-4.05-74.23l-14.172-16.871c-2.836-5.985-3.06-12.059-0.676-18.219 43.593-40.784 94.318-70.362 152.171-88.738a425.232 425.232 0 0 1 44.539-9.785c0.676 0.224 1.35 0.45 2.023 0.676-4.677 5.246-9.512 9.969-14.508 14.172-0.453 0.728-1.129 1.176-2.023 1.35a207.878 207.878 0 0 0-13.496 2.023 96.626 96.626 0 0 1-11.808 4.387c-10.022 5.511-18.456 12.821-25.304 21.93a403.22 403.22 0 0 0-25.644 56.011 28.152 28.152 0 0 0-1.35 11.473 26.327 26.327 0 0 0 3.711 3.375c8.637 1.724 16.847 0.6 24.63-3.375a697.638 697.638 0 0 0 16.532-11.473 429.409 429.409 0 0 0 14.508-14.172c13.206-16.316 20.967-34.986 23.281-56.011a21.232 21.232 0 0 0 3.035-6.074 393.964 393.964 0 0 1 16.871-21.593c5.348-4.351 11.535-6.602 18.558-6.75 31.229-2.446 62.268-1.435 93.125 3.035 2.426 0.73 4.897 1.406 7.422 2.023a317.054 317.054 0 0 0-16.195 11.133 161.042 161.042 0 0 1-20.918 9.785 57.69 57.69 0 0 0-7.762 7.086c-7.682 9.94-13.644 20.85-17.883 32.73 0.387 0.811 0.835 1.599 1.35 2.363 3.622 0.45 7.221 0.111 10.797-1.012a23.747 23.747 0 0 1 6.75-3.375 77.47 77.47 0 0 0 14.508-15.183 188.48 188.48 0 0 1 14.172-22.269c9.415-9.57 20.776-15.641 34.078-18.219 41.486 9.696 80.398 25.443 116.742 47.238a178.744 178.744 0 0 1-14.848 3.375 23.505 23.505 0 0 1-6.074-1.012c-12.39-7.435-25.211-8.335-38.464-2.699a148.674 148.674 0 0 0-11.473 7.422 1203.194 1203.194 0 0 0-34.754 28.679c-1.615 3.304-1.279 6.339 1.012 9.109a152.121 152.121 0 0 1 17.547 4.05 108.4 108.4 0 0 0 22.945 1.35c11.201-1.18 21.326-5.006 30.367-11.473a146.82 146.82 0 0 0 8.098-8.433 255.208 255.208 0 0 1 11.473-19.906 101.723 101.723 0 0 1 15.519-3.711c7.915 0.517 15.115 3.105 21.593 7.762 6.242 4.707 12.538 9.43 18.894 14.172 33.263 26.511 61.828 57.33 85.702 92.449a8.43 8.43 0 0 0 4.723 0c4.297-1.776 5.088-4.59 2.363-8.433-18.219-26.734-39.14-51.255-62.757-73.555-10.532-15.11-18.748-31.193-24.63-48.249a135.785 135.785 0 0 0-8.098-13.16c-12.152-14.017-26.663-25.041-43.527-33.066a3.147 3.147 0 0 0-2.023 1.35 8.43 8.43 0 0 0 0 4.723c7.154 9.414 14.354 18.863 21.593 28.343 8.995 8.098 17.997 16.195 26.992 24.293 4.684 5.785 8.287 12.084 10.797 18.894-52.568-42.561-112.29-70.453-179.162-83.676-7.298-1.81-13.485-5.41-18.558-10.797a292.824 292.824 0 0 0-15.859-31.043 66.667 66.667 0 0 0-8.433-10.797 49.395 49.395 0 0 0-11.808-8.433 123.597 123.597 0 0 0-36.441-8.433z m17.547 11.472c17.55 5.13 30.37 15.814 38.464 32.054-0.45 0.45-0.899 0.45-1.35 0a2592.692 2592.692 0 0 0-37.114-32.054z m-7.422 2.699a708.437 708.437 0 0 1 43.863 38.129c-19.467-2.027-33.523-11.812-42.175-29.355a60.091 60.091 0 0 1-1.687-8.773zM285.923 87.323c9.887-0.385 19.448 1.19 28.679 4.723a123.178 123.178 0 0 0 19.906 11.133 4.407 4.407 0 0 0 2.023 2.023 773.882 773.882 0 0 0-60.734-5.062c-13.279 0.964-26.55 1.752-39.813 2.363 15.954-7.655 32.601-12.718 49.937-15.183z m-26.993 21.594c25.237-1.143 50.206 0.544 74.905 5.062a1320.743 1320.743 0 0 1-34.415 13.496 152.478 152.478 0 0 1-18.894 3.711 421.6 421.6 0 0 1-16.871-3.035 59.07 59.07 0 0 0-10.121-4.05c-6.298-4.05-12.597-8.098-18.894-12.148a5.31 5.31 0 0 0 2.699-1.35 899.61 899.61 0 0 0 21.593-1.687z m172.752 26.992a1426.203 1426.203 0 0 1-50.273 65.456 249.416 249.416 0 0 1-11.133 10.797 1206.058 1206.058 0 0 1 15.183-35.089c4.442-10.364 10.629-19.474 18.558-27.331a145.013 145.013 0 0 1 15.183-9.785 195.573 195.573 0 0 1 12.484-4.05z m5.399 8.098c-6.035 36.403-25.945 61.822-59.722 76.254a15.97 15.97 0 0 1-7.086 0.336 202.576 202.576 0 0 0 30.703-31.379 1740.602 1740.602 0 0 1 27.668-37.114 34.369 34.369 0 0 1 8.433-8.098zM671.24 168.3c5.43-0.186 10.83 0.15 16.195 1.012a22.134 22.134 0 0 1 4.723 2.023c-17.854 9.894-36.526 17.205-56.011 21.93-3.159 1.69-6.534 2.478-10.121 2.363 8.966-8.745 18.863-16.17 29.691-22.269a315.282 315.282 0 0 0 15.519-5.062z m20.245 12.82c-7.708 16.01-20.528 24.219-38.464 24.63-9.13 0.85-18.126 0.175-26.992-2.023l13.833-3.035a790.234 790.234 0 0 0 51.624-19.57z m-442.003 52.636a305.792 305.792 0 0 1 5.062 24.968 300.062 300.062 0 0 1 0.676 55.335 157.05 157.05 0 0 1-4.387 13.496 263.073 263.073 0 0 1-6.41-26.992 725.806 725.806 0 0 1-5.062-15.183 84.96 84.96 0 0 1 0-21.258 151.054 151.054 0 0 1 10.121-30.367z m8.773 8.773c19.386 19.613 23.998 42.332 13.833 68.155a65.993 65.993 0 0 1-8.773 12.82 12.603 12.603 0 0 0-4.387 4.05c-0.224-0.336-0.45-0.676-0.676-1.012 4.957-18.434 6.309-37.104 4.05-56.011a533.94 533.94 0 0 1-4.05-28.004zM84.826 313.385a239.296 239.296 0 0 1 19.906-32.39c17.357-18.014 38.612-26.672 63.77-25.98a10002.436 10002.436 0 0 0-83.676 58.371z m87.726-51.286c0.651 0.822 0.539 1.723-0.336 2.699a71427.204 71427.204 0 0 1-16.195 21.593c-12.45 13.527-27.519 22.073-45.211 25.644a446.199 446.199 0 0 1-20.582 8.433c-1.313 0.669-2.665 0.894-4.05 0.676a9337.814 9337.814 0 0 1 86.375-59.046zM867.609 302.588c6.028 1.931 7.49 5.753 4.387 11.473-4.333 4.036-7.708 3.36-10.121-2.023-0.45-2.807-0.115-5.506 1.012-8.098 1.734-0.15 3.307-0.599 4.723-1.35z" p-id="909" fill="#06b6d4"></path><path d="M478.917 326.881c3.674-0.491 7.049 0.185 10.121 2.023-0.415 1.272-1.314 1.948-2.699 2.023a36.878 36.878 0 0 1-3.711-1.35 18.366 18.366 0 0 1-3.711 1.35 10.384 10.384 0 0 0 0.676 4.723 241.15 241.15 0 0 1 9.109 8.098c1.867 7.071-0.832 10.671-8.098 10.797a15.289 15.289 0 0 1-6.75-2.023c-0.575-1.42-0.127-2.321 1.35-2.699 3.405 1.757 6.78 1.757 10.121 0 0.51-1.89 0.284-3.69-0.676-5.398a987.109 987.109 0 0 1-5.734-4.387c-3.094-2.827-4.11-6.313-3.035-10.461a21.937 21.937 0 0 0 3.035-2.699zM532.229 326.205c8.67 1.368 11.144 6.09 7.422 14.172a69.358 69.358 0 0 1-9.449 10.461c4.044 0.335 8.091 0.45 12.148 0.336v2.699h-17.547a5.726 5.726 0 0 1 0.336-2.699 146.383 146.383 0 0 0 11.473-12.148c1.904-3.87 1.116-6.907-2.363-9.109-2.699 0.224-5.398 0.45-8.098 0.676-0.567-0.684-0.79-1.47-0.676-2.363a58.923 58.923 0 0 1 6.75-2.023zM554.498 326.205c-2.369 1.141-4.505 2.716-6.41 4.723-2.095 6.143-2.206 12.33-0.336 18.558 4.164 6.034 8.998 6.597 14.508 1.687 3.111-7.179 3.111-14.376 0-21.593-2.25-1.91-4.833-3.034-7.762-3.375z m0 3.375a56.386 56.386 0 0 1 5.062 2.699c2.14 5.632 2.14 11.254 0 16.871-2.699 2.699-5.398 2.699-8.098 0-1.957-5.082-2.184-10.257-0.676-15.519 0.961-1.734 2.196-3.086 3.711-4.05zM575.416 326.205c8.896 1.479 11.144 6.09 6.75 13.833-1.946 4.011-4.87 7.611-8.773 10.797 4.044 0.335 8.091 0.45 12.148 0.336v2.699h-17.547a8.776 8.776 0 0 1 0.336-3.375c6.129-3.979 10.29-9.378 12.484-16.195a8.748 8.748 0 0 0-0.676-2.699c-1.687-0.676-3.375-1.35-5.062-2.023-1.812 1.056-3.724 1.396-5.734 1.012-0.567-0.684-0.79-1.47-0.676-2.363a58.923 58.923 0 0 1 6.75-2.023zM599.71 326.881c-3.273 5.046-6.988 10.219-11.133 15.519a12.383 12.383 0 0 0-0.336 4.05 42.336 42.336 0 0 0 10.461-0.676 48.8 48.8 0 0 1 0.336 8.098h3.375a49.135 49.135 0 0 1 0.336-8.098c2.541 1.03 3.777 0.13 3.711-2.699h-4.05c0.111-5.179 0-10.351-0.336-15.519-0.684-0.567-1.47-0.79-2.363-0.676z m-1.349 6.75c0.666 3.018 0.889 6.165 0.676 9.449a41.293 41.293 0 0 1-7.422-0.336 44.153 44.153 0 0 0 6.75-9.109zM458.674 326.881a53.53 53.53 0 0 1 11.808 0.676c0.486 1.089 0.375 2.1-0.336 3.035-2.914 0.335-5.842 0.45-8.773 0.336v6.75a49.135 49.135 0 0 1 8.098 0.336c0.841 0.985 0.841 1.997 0 3.035a24.931 24.931 0 0 1-8.098 0.676 32.365 32.365 0 0 1-0.676 9.109c3.592 0.335 7.19 0.45 10.797 0.336v2.699c-4.67 0.21-9.282-0.015-13.833-0.676l-0.336-12.82c0.028-4.658 0.476-9.156 1.35-13.496zM491.741 326.881c6.079-0.111 12.15 0 18.219 0.336 0.612 1.147 0.836 2.383 0.676 3.711a23.825 23.825 0 0 1-7.762-0.676 413.354 413.354 0 0 0-0.336 23.617h-3.375v-22.945h-8.098c-0.118-1.43 0.107-2.782 0.676-4.05zM882.456 340.377c4.705-0.465 7.626 1.558 8.773 6.074-0.918 4.069-3.392 6.545-7.422 7.422-6.567-2.452-7.694-6.503-3.375-12.148a29.446 29.446 0 0 0 2.023-1.35zM897.301 380.865c6.167-0.591 8.759 2.108 7.762 8.098-1.445 1.445-2.91 2.908-4.387 4.387-7.275 0.521-9.634-2.738-7.086-9.785 1.012-1.329 2.249-2.228 3.711-2.699zM345.304 458.469a18.444 18.444 0 0 0 0 9.785c3.823 0.162 7.649 0.05 11.473-0.336 0.112 33.967 0 67.933-0.336 101.897-0.81 6.548-4.525 9.923-11.133 10.121-0.779 1.988-0.89 4.011-0.336 6.074 14.577 1.339 29.311 1.786 44.2 1.35v-10.121a166.045 166.045 0 0 0-16.195 0.676c0.63-12.807 0.857-25.627 0.676-38.464a205.63 205.63 0 0 0 22.945-1.012 81.666 81.666 0 0 1 12.82-3.375 77.559 77.559 0 0 1 8.773-4.05c9.173-5.43 15.359-13.191 18.558-23.281 4.506-16.353 0.343-29.851-12.484-40.488-8.91-4.702-18.358-7.513-28.343-8.433-16.87-0.336-33.741-0.45-50.611-0.336z m38.465 8.098c0.532 0.192 0.984 0.527 1.35 1.012 11.791-0.949 21.69 2.762 29.691 11.133 6.157 12.024 6.271 24.168 0.336 36.441-5.335 8.13-12.87 12.967-22.605 14.508a81.866 81.866 0 0 1-18.894 0.336c-0.112-18.447 0-36.89 0.336-55.335a70.425 70.425 0 0 1 3.035-5.734c2.548-0.385 4.795-1.17 6.75-2.363zM603.085 492.211c4.601-0.33 9.1 0.118 13.496 1.35 6.359 5.457 7.035 11.532 2.023 18.219-5.05 3.102-9.549 2.43-13.496-2.023-1.101-1.867-1.548-3.89-1.35-6.074-3.81 0.672-7.41 2.02-10.797 4.05-5.061 4.011-8.996 8.51-11.808 13.496a2744.339 2744.339 0 0 1-1.012 56.684 87.252 87.252 0 0 1 10.797 0.336c0.882 2.79 0.882 5.603 0 8.433a511.001 511.001 0 0 1-37.114 0.676v-7.422c4.418 0.091 7.457-1.932 9.109-6.074 0.753-22.41 1.318-44.791 1.687-67.144a79.235 79.235 0 0 0-12.82 0.336v-8.773c4.078-0.06 8.014-0.06 11.808 0 3.306-0.925 6.341-2.496 9.109-4.723a17.49 17.49 0 0 1 6.75-0.676 585.31 585.31 0 0 1 1.012 16.195c5.575-8.405 13.11-14.027 22.605-16.871zM658.42 492.211c-9.531 1.337-17.517 5.61-23.957 12.82-1.754 2.787-2.542 5.822-2.363 9.109 0.156 7.965 4.206 11.116 12.148 9.449 5.305-4.375 5.977-9.327 2.023-14.848a3504.49 3504.49 0 0 1 4.723-5.398c7.962-4.137 15.838-4.026 23.617 0.336a17.973 17.973 0 0 1 2.363 4.05c2.746 8.96 3.757 18.182 3.035 27.668-4.054-0.111-8.104 0.001-12.148 0.336-14.934 1.066-27.418 7.028-37.453 17.883-7.274 13.615-4.686 24.75 7.762 33.402 16.196 5.49 30.26 2.231 42.175-9.785a278.18 278.18 0 0 0 1.012 10.121h26.317v-9.449h-11.473c0.143-18.222 0.251-36.444 0.336-54.66-0.221-2.923-0.45-5.85-0.676-8.773-1.681-10.471-7.415-17.556-17.207-21.258a117.03 117.03 0 0 0-20.246-1.012z m16.869 50.609h4.723c0.221 8.335 0 16.656-0.676 24.968-5.85 5.738-12.827 9.113-20.918 10.121-12.145-1.538-16.304-8.288-12.484-20.246 2.284-4.196 5.548-7.348 9.785-9.449 6.317-2.758 12.842-4.558 19.57-5.398zM467.445 492.883c2.432-0.196 4.795 0.03 7.086 0.676 0.224 22.269 0.45 44.539 0.676 66.808 0.27 6.689 2.856 12.198 7.762 16.532 12.663 4.028 22.672 0.541 30.031-10.461 0.224-17.319 0.45-34.641 0.676-51.96 0.961-2.561 1.296-5.26 1.012-8.098-4.054 0.137-8.104 0.361-12.148 0.676v-8.773c7.061 0.636 13.586-0.375 19.57-3.035a4.407 4.407 0 0 1 2.023-2.023c2.198-0.529 4.338-0.416 6.41 0.336 0.45 26.544 0.45 53.085 0 79.628a8.2 8.2 0 0 0-1.012 4.723h12.82v9.449a257.617 257.617 0 0 1-26.317-0.676 42.962 42.962 0 0 0-2.023-9.449c-11.198 11.181-24.47 14.667-39.813 10.461-5.807-2.116-10.082-5.939-12.82-11.473-4.189-13.949-5.766-28.231-4.723-42.851l0.336-20.918a28.732 28.732 0 0 1 1.012-5.734 78.279 78.279 0 0 0-12.148 0.336v-8.773c6.857 0.683 13.379-0.33 19.57-3.035 1.05-0.486 1.724-1.275 2.023-2.363zM893.253 604.229a22.139 22.139 0 0 0-3.035 3.375 622.942 622.942 0 0 1-19.57 60.734l-4.05 8.098a300.843 300.843 0 0 1-1.687-18.894c-2.349-16.618-8.083-31.914-17.207-45.886-5.277-2.914-7.64-1.343-7.086 4.723 0.387 5.191 0.944 10.366 1.687 15.519 3.468 12.035 8.416 23.732 14.848 35.089a59.98 59.98 0 0 1 2.363 13.496c-1.241 11.708-4.723 22.727-10.461 33.066-19.53 33.241-42.811 63.494-69.843 90.762-0.561 0.465-1.012 0.351-1.35-0.336a169.56 169.56 0 0 1 3.035-10.121c13.031-19.495 16.52-40.638 10.461-63.433a3551.023 3551.023 0 0 0-13.16-37.114 116.285 116.285 0 0 0-4.387-7.086c-2.457-1.241-4.933-1.241-7.422 0-11.101 8.191-18.862 18.874-23.281 32.054-4.251 17.389-2.903 34.26 4.05 50.611a141.417 141.417 0 0 0 19.57 25.644 92.647 92.647 0 0 1 3.375 8.098c-0.021 4.151-0.926 8.198-2.699 12.148a551.134 551.134 0 0 1-56.347 43.527c-38.586 24.414-80.202 41.736-124.839 51.96a92.97 92.97 0 0 1-17.547 2.023c5.12-5.124 10.291-10.29 15.519-15.519 14.826-1.39 28.099-6.567 39.813-15.519a137.715 137.715 0 0 0 15.859-18.558 483.867 483.867 0 0 1 12.82-26.317 392.045 392.045 0 0 0 8.433-20.918 87.373 87.373 0 0 0 2.699-12.82c0.007-2.357-1.005-4.157-3.035-5.398-6.789-1.626-13.535-1.405-20.246 0.676-25.997 12.499-43.991 32.297-53.985 59.383a326.145 326.145 0 0 0-7.422 28.343 79.09 79.09 0 0 1-14.848 18.894c-3.783 6.667-9.518 10.378-17.207 11.133-12.083 0.69-24.116 1.477-36.102 2.363a1222.516 1222.516 0 0 1-53.648-3.711 554.706 554.706 0 0 0-15.519-2.699 553.027 553.027 0 0 1 20.918-14.172 94.871 94.871 0 0 0 17.547-8.098 47.796 47.796 0 0 0 7.086-6.41 207.666 207.666 0 0 0 14.172-23.617c2.14-3.528 2.704-7.239 1.687-11.133-6.743-0.715-12.813 0.973-18.219 5.062a252.34 252.34 0 0 0-11.133 10.797 235.165 235.165 0 0 0-15.519 24.968c-9.758 9.932-21.455 16.46-35.089 19.57-40.855-9.868-79.432-25.272-115.73-46.226a7.767 7.767 0 0 0-2.699-2.699c5.528 0.404 10.926-0.387 16.195-2.363a46.952 46.952 0 0 1 8.773 2.363c14.268 8.083 28.217 7.519 41.839-1.687a2097.075 2097.075 0 0 0 37.789-30.031c3.51-3.254 4.185-6.965 2.023-11.133a220.27 220.27 0 0 1-12.82-3.711 92.57 92.57 0 0 0-14.172-2.023c-24.806-3.003-43.812 5.885-57.023 26.656-1.351 4.98-3.714 9.367-7.086 13.16a124.577 124.577 0 0 1-16.871 3.711 42.116 42.116 0 0 0-9.449-2.363c-2.685-1.33-5.384-2.678-8.098-4.05-2.579-2.213-5.166-3.9-7.762-5.062-34.846-25.851-65.213-56.218-91.101-91.101-2.646-5.452-6.357-9.946-11.133-13.496a50.308 50.308 0 0 0-5.734 4.05c-0.463 1.398-0.351 2.746 0.336 4.05a575.516 575.516 0 0 0 43.527 55.335 217.157 217.157 0 0 0 14.848 14.172c9.055 9.785 16.253 20.803 21.593 33.066a255.642 255.642 0 0 0 12.148 26.992c11.183 16.803 25.916 29.508 44.2 38.129a14.401 14.401 0 0 0 6.074 1.012 16.912 16.912 0 0 0-0.336-4.723c-6.298-8.55-12.597-17.092-18.894-25.644a135.05 135.05 0 0 0-23.957-21.258c-7.448-6.93-12.734-15.145-15.859-24.63 53.221 43.072 113.392 71.077 180.513 84.015 8.213 2.538 14.736 7.368 19.57 14.508a138.827 138.827 0 0 0 7.086 16.871 115.01 115.01 0 0 0 16.532 22.605 54.217 54.217 0 0 0 10.121 6.75 165.116 165.116 0 0 0 24.293 7.422 43.65 43.65 0 0 0 10.797 0.676c0.801-0.797 1.249-1.809 1.35-3.035a150.546 150.546 0 0 0-10.121-29.691c-7.039-12.059-17.16-20.271-30.367-24.63a289.914 289.914 0 0 0-24.968-5.398 6.056 6.056 0 0 0-2.699-2.023l1.012-1.012a195.665 195.665 0 0 0 17.207 2.363 531.42 531.42 0 0 0 65.456 0 381.55 381.55 0 0 1 34.078-3.711c9.505-0.304 17.375 3.071 23.617 10.121 9.899 15.183 22.383 27.782 37.453 37.789 1.801-0.007 2.7-0.905 2.699-2.699-1.305-9.177-4.793-17.729-10.461-25.644-10.407-10.886-22.89-18.422-37.453-22.605a103.177 103.177 0 0 0 6.074-2.363 333.416 333.416 0 0 0 40.488-11.473 86.964 86.964 0 0 1 9.109-2.023 75.667 75.667 0 0 1 18.558 5.062 59.826 59.826 0 0 0 7.422 4.05 295.956 295.956 0 0 0 25.644 20.582 83.937 83.937 0 0 0 21.593 8.433 118.684 118.684 0 0 0 35.765-1.012c17.729-4.71 34.152-12.134 49.261-22.269 1.241-1.369 1.581-2.942 1.012-4.723a144.791 144.791 0 0 0-30.367-21.593 93.643 93.643 0 0 0-18.558-7.086 82.489 82.489 0 0 0-22.945-0.336 165.884 165.884 0 0 0-32.39 12.484 538.032 538.032 0 0 1-20.246 7.422 13.804 13.804 0 0 1-6.75-0.336 111.622 111.622 0 0 1-16.195-5.398c32.862-14.178 63.683-31.837 92.449-52.972a134.318 134.318 0 0 1 20.246-6.75c17.121-3.915 33.092-1.33 47.911 7.762a292.5 292.5 0 0 0 14.848 12.484c3.056 1.101 5.08 0.197 6.074-2.699a193.729 193.729 0 0 0-8.433-20.582 31.348 31.348 0 0 1-3.711-4.05c-9.581-6.174-20.042-8.423-31.379-6.75a398.2 398.2 0 0 1-27.331 5.734 715.443 715.443 0 0 0 22.945-20.246c6.767-7.215 13.517-14.414 20.246-21.593a55.43 55.43 0 0 1 9.449-6.75 76.834 76.834 0 0 1 19.57-6.41c12.142-0.525 24.286-0.865 36.441-1.012 2.935-0.387 5.856-0.837 8.773-1.35 14.744-5.169 27.228-13.603 37.453-25.304 12.62-16.682 23.193-34.679 31.715-53.985 0.525-1.862 0.189-3.55-1.012-5.062a34.75 34.75 0 0 0-13.496 1.35 527.378 527.378 0 0 0-57.359 23.281c-14.941 9.313-26.635 21.69-35.089 37.114a220.6 220.6 0 0 0-7.086 12.82 44.675 44.675 0 0 1-11.808 7.086c-0.676 0.45-1.35 0.45-2.023 0 37.91-49.558 64.23-104.555 78.953-164.991a3.338 3.338 0 0 0-0.676-1.687c-3.543-1.936-7.368-2.724-11.473-2.363z m-127.541 176.8c-0.676 0.061-1.233-0.168-1.687-0.676-2.942-3.84-5.87-7.664-8.773-11.473-9.549-16.864-11.122-34.411-4.723-52.636 3.929-7.64 8.988-14.386 15.183-20.246-2.806 11.971-4.608 24.231-5.398 36.777a667.561 667.561 0 0 0 5.398 48.249z m6.75-84.351c1.073 1.086 1.862 2.434 2.363 4.05a195.416 195.416 0 0 0 8.773 33.066c2.227 10.346 2.227 20.689 0 31.043a286.852 286.852 0 0 1-8.773 25.644 88.298 88.298 0 0 0-2.699-9.449c-1.354-9.968-2.706-19.859-4.05-29.691a438.833 438.833 0 0 1 0-34.415 193.21 193.21 0 0 1 4.387-20.246z m78.952 64.106c8.127-12.956 17.794-24.535 29.016-34.754 4.17-2.646 8.44-5.124 12.82-7.422a2014.451 2014.451 0 0 1 38.801-14.508c1.649-0.776 3.332-1.112 5.062-1.012a2598.877 2598.877 0 0 0-58.035 40.488 497.337 497.337 0 0 1-27.668 17.207z m88.401-50.611a328.533 328.533 0 0 1-17.883 29.691c-17.396 20.21-39.551 29.995-66.469 29.355a13698.596 13698.596 0 0 0 84.352-59.046z m-292.868 93.125c2.259-0.115 4.51 0 6.75 0.336a138.939 138.939 0 0 0-20.582 19.231 1400.258 1400.258 0 0 0-35.089 45.886 114.67 114.67 0 0 1-10.121 10.797c3.011-24.361 13.697-44.491 32.054-60.395a163.285 163.285 0 0 1 26.992-15.859z m7.422 8.098a304.444 304.444 0 0 0-13.833 31.715 776.147 776.147 0 0 1-12.148 22.269c-9.299 11.906-21.333 19.441-36.102 22.605a1230.495 1230.495 0 0 0 41.501-54.996 165.373 165.373 0 0 0 11.473-13.496c2.781-3.124 5.816-5.824 9.109-8.098zM332.485 843.11c4.036-8.873 10.334-15.738 18.894-20.582 5.35-1.726 10.524-3.078 15.519-4.05 7.198-0.45 14.395-0.45 21.593 0 2.756 0.153 5.455 0.608 8.098 1.35a436.331 436.331 0 0 0-64.109 23.281z m62.081-14.843a5.689 5.689 0 0 1 2.699 0.336c-9.208 9.449-19.777 17.092-31.715 22.945-9.43 4.461-19.215 5.473-29.355 3.035a37.416 37.416 0 0 1-4.387-2.023c19.942-10.743 40.86-18.841 62.757-24.293z m342.805 64.78c15.034-0.572 28.762 3.368 41.164 11.808 3.596 2.478 7.2 4.948 10.797 7.422-33.152 4.523-66.218 3.847-99.198-2.023 15.083-6.95 30.832-12.688 47.238-17.207z m50.61 28.344c-17.37 8.251-35.697 13.428-54.996 15.519a259.276 259.276 0 0 1-20.918-4.05 259.336 259.336 0 0 0-21.258-11.473 13.662 13.662 0 0 0-2.699-2.363c20.278 2.313 40.638 4 61.071 5.062a1018.61 1018.61 0 0 1 38.801-2.699z m-318.509 18.894c15.694 1.112 28.405 8.083 38.129 20.918 3.178 4.697 5.089 9.868 5.734 15.519-0.337 0.69-0.789 0.805-1.35 0.336a3043.433 3043.433 0 0 1-39.14-34.754c-0.973-0.98-2.096-1.652-3.375-2.023z m-2.027 7.423a1258.447 1258.447 0 0 1 37.114 31.715c-15.442-4.312-27.25-13.313-35.429-26.992a19.782 19.782 0 0 1-1.687-4.723z m37.116 31.716a4.77 4.77 0 0 1 2.023 1.35c-1.133 0.143-1.809-0.304-2.023-1.35zM122.618 630.546c3.854-0.826 6.889 0.297 9.109 3.375 0.158 3.592-1.19 6.515-4.05 8.773-3.426 1.027-6.238 0.128-8.433-2.699-0.774-1.53-0.886-3.102-0.336-4.723a41.734 41.734 0 0 1 3.711-4.723zM137.463 670.361c6.413-0.815 9.224 1.885 8.433 8.098-1.916 4.183-5.178 5.641-9.785 4.387-2.749-2.57-3.313-5.609-1.687-9.109 0.69-1.477 1.705-2.599 3.035-3.375z" p-id="910" fill="#06b6d4"></path><path d="M482.292 679.132c-0.765 1.154-1.89 1.605-3.375 1.35v23.617h3.375a29.112 29.112 0 0 1 0.676-8.773 26.68 26.68 0 0 1 4.723-1.012 21.064 21.064 0 0 1 4.05-3.035c1.007-1.254 1.458-2.721 1.35-4.387 0.238-2.159-0.438-3.961-2.023-5.398a18.109 18.109 0 0 0-8.773-2.363z m0 4.05c1.814-0.107 3.614 0 5.398 0.336 1.945 1.52 2.392 3.436 1.35 5.734a13.526 13.526 0 0 0-2.699 2.363c-1.332 0.336-2.68 0.447-4.05 0.336v-8.773zM517.381 679.132a643.093 643.093 0 0 1 15.859 18.219c0.224-5.85 0.45-11.694 0.676-17.547 0.948-0.79 1.735-0.561 2.363 0.676 0.675 7.862 0.898 15.73 0.676 23.617-1.499 0.215-2.736-0.229-3.711-1.35-4.472-5.377-8.971-10.775-13.496-16.195-0.336 5.845-0.45 11.694-0.336 17.547h-3.375c-0.112-7.876 0-15.75 0.336-23.617a2.89 2.89 0 0 0 1.012-1.35zM501.862 679.132a253.77 253.77 0 0 1-8.433 21.593 8.71 8.71 0 0 0-0.336 3.375 4.586 4.586 0 0 0 2.699-0.676 61.178 61.178 0 0 0 2.699-6.75 29.078 29.078 0 0 1 8.773-0.676 28.53 28.53 0 0 0 2.363 7.422c1.444 0.858 2.907 0.858 4.387 0a343.317 343.317 0 0 1-10.121-24.293h-2.023z m0.676 6.073c0.816 2.556 1.944 5.026 3.375 7.422-1.988 0.776-4.011 0.89-6.074 0.336 1.359-2.389 2.258-4.98 2.699-7.762zM544.374 679.132a75.83 75.83 0 0 1 10.121 0.336c0.612 1.148 0.836 2.381 0.676 3.711a27.924 27.924 0 0 1-8.433-0.676 33.956 33.956 0 0 0-0.336 6.75h8.098v3.375h-8.098a57.644 57.644 0 0 0 0.336 8.773c2.781-0.876 5.591-0.876 8.433 0 0.504 0.837 0.729 1.734 0.676 2.699h-12.82c-0.39-8.44 0.059-16.77 1.35-24.968zM561.245 679.132c1.024 0.007 1.812 0.457 2.363 1.35 0.336 6.743 0.45 13.489 0.336 20.246 3.181-0.221 6.33 0.007 9.449 0.676 0.559 0.64 0.67 1.316 0.336 2.023a66.527 66.527 0 0 1-13.16 0.676 238.21 238.21 0 0 1 0.676-24.968zM155.01 707.474c6.393 0.275 8.868 3.536 7.422 9.785-1.968 3.436-4.892 4.561-8.773 3.375a5.962 5.962 0 0 1-2.363-2.363c-1.343-4.655-0.103-8.251 3.711-10.797z" p-id="911" fill="#06b6d4"></path></svg>