<svg version="1.1" xmlns="http://www.w3.org/2000/svg" width="1024" height="1024" viewBox="0 0 1024 1024">
<title></title>
<path d="M500.51 31.988c-0.442 0.88-0.89 1.781-1.35 2.699 2.797 9.409 6.060 18.63 9.785 27.668 1.925 2.499 3.5 5.198 4.723 8.098 6.649 9.005 15.31 15.304 25.98 18.894 8.177 1.346 16.274 3.030 24.293 5.062 1.294 0.243 2.422 0.807 3.375 1.687-0.788 0.224-1.575 0.45-2.363 0.676-38.196-4.004-76.211-3.104-114.043 2.699-10.382-0.161-18.93-4.212-25.644-12.148-4.125-6.813-8.964-12.999-14.508-18.558-6.54-5.643-13.063-11.265-19.57-16.871-2.478-0.798-4.050-0.010-4.723 2.363 2.955 17.444 12.065 30.492 27.331 39.14 6.875 3.040 13.737 6.079 20.582 9.109-18.446 4.77-36.777 10.056-54.996 15.859-9.314-1.961-18.2-5.111-26.656-9.449-5.13-4.239-10.079-8.626-14.848-13.16-9.099-7.137-19.224-12.312-30.367-15.519-17.739-2.504-35.061-0.93-51.96 4.723-12.213 4.805-23.798 10.768-34.754 17.883-1.375 2.588-1.151 5.064 0.676 7.422 5.674 4.354 11.412 8.628 17.207 12.82 10.871 6.9 22.569 11.734 35.089 14.508 9.37 0.251 18.592-0.872 27.668-3.375 13.593-5.952 27.317-11.575 41.164-16.871 3.056-0.457 6.092-0.345 9.109 0.336 5.238 1.787 10.524 3.364 15.859 4.723-8.209 3.979-16.419 8.026-24.63 12.148-23.744 10.866-46.351 24.585-67.82 41.164-7.822 3.28-15.919 5.755-24.293 7.422-15.399 2.943-29.571 0.58-42.512-7.086-5.134-4.23-10.308-8.5-15.519-12.82-2.108-1.139-4.244-1.251-6.41-0.336-0.45 1.35-0.45 2.699 0 4.050 2.478 5.070 4.39 10.354 5.734 15.859 1.696 2.7 3.72 5.176 6.074 7.422 7.358 3.924 15.232 6.283 23.617 7.086 11.469-2.363 22.942-4.499 34.415-6.41-15.455 12.305-29.626 26.026-42.512 41.164-9.99 8.225-21.459 12.947-34.415 14.172-7.684 0.21-15.33-0.015-22.945-0.676-6.088 0.779-12.158 1.678-18.219 2.699-16.47 6.125-30.081 16.134-40.828 30.031-10.013 15.069-19.011 30.814-26.992 47.238-1.979 4.368-0.63 6.842 4.050 7.422 3.306-0.457 6.569-1.133 9.785-2.023 10.66-4.268 21.457-8.202 32.39-11.808 7.809-3.729 15.683-7.327 23.617-10.797 12.21-7.601 22.559-17.162 31.043-28.679 4.275-6.748 8.211-13.717 11.808-20.918 4.338-4.212 9.396-7.022 15.183-8.433-9.835 12.661-19.056 25.821-27.668 39.476-20.562 34.65-36.421 71.088-47.574 109.32-1.565 6.135-2.8 12.21-3.711 18.219 2.905 0.9 5.829 1.8 8.773 2.699 1.65-0.49 3.227-1.166 4.723-2.023 1.239-3.177 2.479-6.328 3.711-9.449 1.851-9.21 4.327-18.21 7.422-26.992 4.251-10.698 8.302-21.495 12.148-32.39 0.249-0.95 0.81-1.626 1.687-2.023 0.921 10.338 2.157 20.91 3.711 31.715 1.689 5.612 3.487 11.238 5.398 16.871 2.346 5.142 5.046 10.092 8.098 14.848 2.773 4.025 5.696 4.248 8.773 0.676-0.231-13.068-2.931-25.665-8.098-37.789-3.93-6.733-7.302-13.707-10.121-20.918-0.45-3.138-0.786-6.285-1.012-9.449 0.607-7.164 2.070-13.91 4.387-20.246 19.995-38.69 45.524-73.108 76.591-103.246 0.224 0.563 0.45 1.124 0.676 1.687-1.359 3.402-2.598 6.89-3.711 10.461-2.389 3.57-4.527 7.282-6.41 11.133-1.52 4.837-3.091 9.336-4.723 13.496-1.934 8.838-2.269 17.724-1.012 26.656 4.678 17.178 10.528 34.273 17.547 51.286 2.068 3.614 5.103 4.737 9.109 3.375 7.476-4.629 13.438-10.704 17.883-18.219 13.283-25.682 11.931-50.427-4.050-74.23-4.723-5.622-9.449-11.249-14.172-16.871-2.836-5.985-3.060-12.059-0.676-18.219 43.593-40.784 94.318-70.362 152.171-88.738 14.656-4.054 29.5-7.317 44.539-9.785 0.676 0.224 1.35 0.45 2.023 0.676-4.677 5.246-9.512 9.969-14.508 14.172-0.453 0.728-1.129 1.176-2.023 1.35-4.522 0.526-9.021 1.202-13.496 2.023-3.838 1.717-7.772 3.181-11.808 4.387-10.022 5.511-18.456 12.821-25.304 21.93-9.983 18.030-18.528 36.696-25.644 56.011-1.244 3.748-1.696 7.571-1.35 11.473 1.136 1.249 2.372 2.373 3.711 3.375 8.637 1.724 16.847 0.6 24.63-3.375 5.55-3.735 11.062-7.558 16.532-11.473 4.955-4.619 9.794-9.342 14.508-14.172 13.206-16.316 20.967-34.986 23.281-56.011 1.332-1.852 2.344-3.875 3.035-6.074 5.385-7.409 11.010-14.607 16.871-21.593 5.348-4.351 11.535-6.602 18.558-6.75 31.229-2.446 62.268-1.435 93.125 3.035 2.426 0.73 4.897 1.406 7.422 2.023-5.515 3.545-10.914 7.256-16.195 11.133-6.745 3.764-13.715 7.027-20.918 9.785-2.79 2.114-5.374 4.473-7.762 7.086-7.682 9.94-13.644 20.85-17.883 32.73 0.387 0.811 0.835 1.599 1.35 2.363 3.622 0.45 7.221 0.111 10.797-1.012 2.063-1.479 4.31-2.607 6.75-3.375 5.519-4.396 10.352-9.454 14.508-15.183 4.23-7.797 8.955-15.219 14.172-22.269 9.415-9.57 20.776-15.641 34.078-18.219 41.486 9.696 80.398 25.443 116.742 47.238-4.859 1.327-9.806 2.45-14.848 3.375-2.070-0.072-4.097-0.408-6.074-1.012-12.39-7.435-25.211-8.335-38.464-2.699-3.964 2.314-7.787 4.789-11.473 7.422-11.719 9.304-23.302 18.866-34.754 28.679-1.615 3.304-1.279 6.339 1.012 9.109 5.97 1.012 11.815 2.363 17.547 4.050 7.605 1.264 15.256 1.713 22.945 1.35 11.201-1.18 21.326-5.006 30.367-11.473 2.799-2.69 5.498-5.502 8.098-8.433 3.504-6.77 7.329-13.407 11.473-19.906 5.069-1.642 10.236-2.877 15.519-3.711 7.915 0.517 15.115 3.105 21.593 7.762 6.242 4.707 12.538 9.43 18.894 14.172 33.263 26.511 61.828 57.33 85.702 92.449 1.573 0.45 3.15 0.45 4.723 0 4.297-1.776 5.088-4.59 2.363-8.433-18.219-26.734-39.14-51.255-62.757-73.555-10.532-15.11-18.748-31.193-24.63-48.249-2.43-4.509-5.13-8.896-8.098-13.16-12.152-14.017-26.663-25.041-43.527-33.066-0.85 0.175-1.526 0.627-2.023 1.35-0.45 1.575-0.45 3.15 0 4.723 7.154 9.414 14.354 18.863 21.593 28.343 8.995 8.098 17.997 16.195 26.992 24.293 4.684 5.785 8.287 12.084 10.797 18.894-52.568-42.561-112.29-70.453-179.162-83.676-7.298-1.81-13.485-5.41-18.558-10.797-4.667-10.656-9.953-21.005-15.859-31.043-2.468-3.924-5.278-7.522-8.433-10.797-3.519-3.39-7.458-6.205-11.808-8.433-11.72-4.659-23.864-7.471-36.441-8.433zM518.057 43.46c17.55 5.13 30.37 15.814 38.464 32.054-0.45 0.45-0.899 0.45-1.35 0-12.252-10.786-24.624-21.471-37.114-32.054zM510.635 46.159c15.156 12.124 29.78 24.831 43.863 38.129-19.467-2.027-33.523-11.812-42.175-29.355-0.78-2.89-1.345-5.813-1.687-8.773zM285.923 87.323c9.887-0.385 19.448 1.19 28.679 4.723 6.285 4.324 12.923 8.035 19.906 11.133 0.45 0.899 1.124 1.575 2.023 2.023-20.208-2.489-40.454-4.173-60.734-5.062-13.279 0.964-26.55 1.752-39.813 2.363 15.954-7.655 32.601-12.718 49.937-15.183zM258.93 108.917c25.237-1.143 50.206 0.544 74.905 5.062-11.142 4.555-22.614 9.053-34.415 13.496-6.217 1.635-12.515 2.871-18.894 3.711-5.583-0.886-11.205-1.898-16.871-3.035-3.227-1.653-6.602-3.004-10.121-4.050-6.298-4.050-12.597-8.098-18.894-12.148 1.043-0.197 1.943-0.644 2.699-1.35 7.308-0.483 14.507-1.047 21.593-1.687zM431.682 135.909c-16.091 22.259-32.85 44.077-50.273 65.456-3.659 3.772-7.37 7.372-11.133 10.797 4.877-11.776 9.935-23.473 15.183-35.089 4.442-10.364 10.629-19.474 18.558-27.331 4.877-3.588 9.935-6.851 15.183-9.785 4.146-1.499 8.308-2.85 12.484-4.050zM437.081 144.007c-6.035 36.403-25.945 61.822-59.722 76.254-2.342 0.643-4.705 0.756-7.086 0.336 11.348-9.324 21.58-19.781 30.703-31.379 9.058-12.493 18.28-24.865 27.668-37.114 2.375-3.208 5.189-5.907 8.433-8.098zM671.24 168.3c5.43-0.186 10.83 0.15 16.195 1.012 1.652 0.491 3.232 1.167 4.723 2.023-17.854 9.894-36.526 17.205-56.011 21.93-3.159 1.69-6.534 2.478-10.121 2.363 8.966-8.745 18.863-16.17 29.691-22.269 5.31-1.586 10.486-3.27 15.519-5.062zM691.485 181.12c-7.708 16.010-20.528 24.219-38.464 24.63-9.13 0.85-18.126 0.175-26.992-2.023 4.61-1.012 9.222-2.023 13.833-3.035 17.457-5.93 34.664-12.453 51.624-19.57zM249.482 233.756c2.027 8.217 3.714 16.538 5.062 24.968 1.93 18.424 2.155 36.87 0.676 55.335-1.25 4.538-2.713 9.037-4.387 13.496-2.608-8.869-4.744-17.866-6.41-26.992-1.733-5.011-3.42-10.073-5.062-15.183-0.89-7.084-0.89-14.169 0-21.258 2.315-10.532 5.69-20.657 10.121-30.367zM258.255 242.529c19.386 19.613 23.998 42.332 13.833 68.155-2.426 4.626-5.348 8.9-8.773 12.82-1.783 0.995-3.246 2.346-4.387 4.050-0.224-0.336-0.45-0.676-0.676-1.012 4.957-18.434 6.309-37.104 4.050-56.011-1.597-9.304-2.949-18.637-4.050-28.004zM84.826 313.385c5.775-11.322 12.41-22.119 19.906-32.39 17.357-18.014 38.612-26.672 63.77-25.98-27.967 19.297-55.858 38.755-83.676 58.371zM172.552 262.099c0.651 0.822 0.539 1.723-0.336 2.699-5.393 7.193-10.791 14.391-16.195 21.593-12.45 13.527-27.519 22.073-45.211 25.644-6.774 2.974-13.636 5.788-20.582 8.433-1.313 0.669-2.665 0.894-4.050 0.676 28.702-19.857 57.494-39.54 86.375-59.046z"></path>
<path d="M867.609 302.588c6.028 1.931 7.49 5.753 4.387 11.473-4.333 4.036-7.708 3.36-10.121-2.023-0.45-2.807-0.115-5.506 1.012-8.098 1.734-0.15 3.307-0.599 4.723-1.35z"></path>
<path d="M478.917 326.881c3.674-0.491 7.049 0.185 10.121 2.023-0.415 1.272-1.314 1.948-2.699 2.023-1.261-0.385-2.497-0.832-3.711-1.35-1.216 0.592-2.451 1.044-3.711 1.35-0.142 1.634 0.087 3.209 0.676 4.723 3.099 2.619 6.138 5.318 9.109 8.098 1.867 7.071-0.832 10.671-8.098 10.797-2.426-0.153-4.673-0.829-6.75-2.023-0.575-1.42-0.127-2.321 1.35-2.699 3.405 1.757 6.78 1.757 10.121 0 0.51-1.89 0.284-3.69-0.676-5.398-1.89-1.436-3.805-2.899-5.734-4.387-3.094-2.827-4.11-6.313-3.035-10.461 1.124-0.831 2.136-1.732 3.035-2.699z"></path>
<path d="M532.229 326.205c8.67 1.368 11.144 6.090 7.422 14.172-2.792 3.808-5.943 7.291-9.449 10.461 4.044 0.335 8.091 0.45 12.148 0.336 0 0.899 0 1.8 0 2.699-5.85 0-11.696 0-17.547 0-0.104-0.929 0.007-1.828 0.336-2.699 4.069-3.846 7.892-7.892 11.473-12.148 1.904-3.87 1.116-6.907-2.363-9.109-2.699 0.224-5.398 0.45-8.098 0.676-0.567-0.684-0.79-1.47-0.676-2.363 2.244-0.818 4.491-1.494 6.75-2.023z"></path>
<path d="M554.498 326.205c-2.369 1.141-4.505 2.716-6.41 4.723-2.095 6.143-2.206 12.33-0.336 18.558 4.164 6.034 8.998 6.597 14.508 1.687 3.111-7.179 3.111-14.376 0-21.593-2.25-1.91-4.833-3.034-7.762-3.375zM554.498 329.58c1.705 0.798 3.39 1.698 5.062 2.699 2.14 5.632 2.14 11.254 0 16.871-2.699 2.699-5.398 2.699-8.098 0-1.957-5.082-2.184-10.257-0.676-15.519 0.961-1.734 2.196-3.086 3.711-4.050z"></path>
<path d="M575.416 326.205c8.896 1.479 11.144 6.090 6.75 13.833-1.946 4.011-4.87 7.611-8.773 10.797 4.044 0.335 8.091 0.45 12.148 0.336 0 0.899 0 1.8 0 2.699-5.85 0-11.696 0-17.547 0-0.107-1.147 0.004-2.271 0.336-3.375 6.129-3.979 10.29-9.378 12.484-16.195-0.083-0.939-0.307-1.84-0.676-2.699-1.687-0.676-3.375-1.35-5.062-2.023-1.812 1.056-3.724 1.396-5.734 1.012-0.567-0.684-0.79-1.47-0.676-2.363 2.244-0.818 4.491-1.494 6.75-2.023z"></path>
<path d="M599.71 326.881c-3.273 5.046-6.988 10.219-11.133 15.519-0.333 1.332-0.449 2.68-0.336 4.050 3.552 0.207 7.038-0.021 10.461-0.676 0.335 2.689 0.45 5.388 0.336 8.098 1.124 0 2.25 0 3.375 0-0.111-2.709 0.001-5.408 0.336-8.098 2.541 1.030 3.777 0.13 3.711-2.699-1.35 0-2.699 0-4.050 0 0.111-5.179 0-10.351-0.336-15.519-0.684-0.567-1.47-0.79-2.363-0.676zM598.361 333.631c0.666 3.018 0.889 6.165 0.676 9.449-2.486 0.111-4.957-0.001-7.422-0.336 2.653-2.76 4.9-5.796 6.75-9.109z"></path>
<path d="M458.674 326.881c3.997-0.21 7.936 0.018 11.808 0.676 0.486 1.089 0.375 2.1-0.336 3.035-2.914 0.335-5.842 0.45-8.773 0.336 0 2.25 0 4.499 0 6.75 2.709-0.111 5.408 0.001 8.098 0.336 0.841 0.985 0.841 1.997 0 3.035-2.664 0.669-5.363 0.893-8.098 0.676 0.204 3.102-0.024 6.141-0.676 9.109 3.592 0.335 7.19 0.45 10.797 0.336 0 0.899 0 1.8 0 2.699-4.67 0.21-9.282-0.015-13.833-0.676-0.112-4.274-0.224-8.55-0.336-12.82 0.028-4.658 0.476-9.156 1.35-13.496z"></path>
<path d="M491.741 326.881c6.079-0.111 12.15 0 18.219 0.336 0.612 1.147 0.836 2.383 0.676 3.711-2.658 0.199-5.245-0.029-7.762-0.676-0.336 7.871-0.45 15.745-0.336 23.617-1.124 0-2.25 0-3.375 0 0-7.649 0-15.296 0-22.945-2.699 0-5.398 0-8.098 0-0.118-1.43 0.107-2.782 0.676-4.050z"></path>
<path d="M882.456 340.377c4.705-0.465 7.626 1.558 8.773 6.074-0.918 4.069-3.392 6.545-7.422 7.422-6.567-2.452-7.694-6.503-3.375-12.148 0.744-0.455 1.416-0.906 2.023-1.35z"></path>
<path d="M897.301 380.865c6.167-0.591 8.759 2.108 7.762 8.098-1.445 1.445-2.91 2.908-4.387 4.387-7.275 0.521-9.634-2.738-7.086-9.785 1.012-1.329 2.249-2.228 3.711-2.699z"></path>
<path d="M345.304 458.469c-0.881 3.264-0.881 6.522 0 9.785 3.823 0.162 7.649 0.050 11.473-0.336 0.112 33.967 0 67.933-0.336 101.897-0.81 6.548-4.525 9.923-11.133 10.121-0.779 1.988-0.89 4.011-0.336 6.074 14.577 1.339 29.311 1.786 44.2 1.35 0-3.375 0-6.75 0-10.121-5.413-0.038-10.811 0.187-16.195 0.676 0.63-12.807 0.857-25.627 0.676-38.464 7.666 0.090 15.315-0.247 22.945-1.012 4.142-1.463 8.416-2.586 12.82-3.375 2.832-1.53 5.756-2.877 8.773-4.050 9.173-5.43 15.359-13.191 18.558-23.281 4.506-16.353 0.343-29.851-12.484-40.488-8.91-4.702-18.358-7.513-28.343-8.433-16.87-0.336-33.741-0.45-50.611-0.336zM383.769 466.567c0.532 0.192 0.984 0.527 1.35 1.012 11.791-0.949 21.69 2.762 29.691 11.133 6.157 12.024 6.271 24.168 0.336 36.441-5.335 8.13-12.87 12.967-22.605 14.508-6.239 0.84-12.538 0.953-18.894 0.336-0.112-18.447 0-36.89 0.336-55.335 0.917-1.946 1.929-3.857 3.035-5.734 2.548-0.385 4.795-1.17 6.75-2.363z"></path>
<path d="M603.085 492.211c4.601-0.33 9.1 0.118 13.496 1.35 6.359 5.457 7.035 11.532 2.023 18.219-5.050 3.102-9.549 2.43-13.496-2.023-1.101-1.867-1.548-3.89-1.35-6.074-3.81 0.672-7.41 2.020-10.797 4.050-5.061 4.011-8.996 8.51-11.808 13.496-0.143 18.908-0.479 37.802-1.012 56.684 3.606-0.111 7.205 0.001 10.797 0.336 0.882 2.79 0.882 5.603 0 8.433-12.363 0.676-24.736 0.899-37.114 0.676 0-2.476 0-4.95 0-7.422 4.418 0.091 7.457-1.932 9.109-6.074 0.753-22.41 1.318-44.791 1.687-67.144-4.279-0.235-8.551-0.122-12.82 0.336 0-2.923 0-5.85 0-8.773 4.078-0.060 8.014-0.060 11.808 0 3.306-0.925 6.341-2.496 9.109-4.723 2.205-0.667 4.456-0.89 6.75-0.676 0.411 5.388 0.75 10.787 1.012 16.195 5.575-8.405 13.11-14.027 22.605-16.871z"></path>
<path d="M658.42 492.211c-9.531 1.337-17.517 5.61-23.957 12.82-1.754 2.787-2.542 5.822-2.363 9.109 0.156 7.965 4.206 11.116 12.148 9.449 5.305-4.375 5.977-9.327 2.023-14.848 1.555-1.781 3.13-3.581 4.723-5.398 7.962-4.137 15.838-4.026 23.617 0.336 0.958 1.238 1.749 2.589 2.363 4.050 2.746 8.96 3.757 18.182 3.035 27.668-4.054-0.111-8.104 0.001-12.148 0.336-14.934 1.066-27.418 7.028-37.453 17.883-7.274 13.615-4.686 24.75 7.762 33.402 16.196 5.49 30.26 2.231 42.175-9.785 0.275 3.388 0.615 6.759 1.012 10.121 8.773 0 17.547 0 26.317 0 0-3.15 0-6.298 0-9.449-3.825 0-7.647 0-11.473 0 0.143-18.222 0.251-36.444 0.336-54.66-0.221-2.923-0.45-5.85-0.676-8.773-1.681-10.471-7.415-17.556-17.207-21.258-6.707-0.923-13.457-1.259-20.246-1.012zM675.289 542.82c1.573 0 3.15 0 4.723 0 0.221 8.335 0 16.656-0.676 24.968-5.85 5.738-12.827 9.113-20.918 10.121-12.145-1.538-16.304-8.288-12.484-20.246 2.284-4.196 5.548-7.348 9.785-9.449 6.317-2.758 12.842-4.558 19.57-5.398z"></path>
<path d="M467.445 492.883c2.432-0.196 4.795 0.030 7.086 0.676 0.224 22.269 0.45 44.539 0.676 66.808 0.27 6.689 2.856 12.198 7.762 16.532 12.663 4.028 22.672 0.541 30.031-10.461 0.224-17.319 0.45-34.641 0.676-51.96 0.961-2.561 1.296-5.26 1.012-8.098-4.054 0.137-8.104 0.361-12.148 0.676 0-2.923 0-5.85 0-8.773 7.061 0.636 13.586-0.375 19.57-3.035 0.45-0.899 1.124-1.575 2.023-2.023 2.198-0.529 4.338-0.416 6.41 0.336 0.45 26.544 0.45 53.085 0 79.628-0.81 1.47-1.149 3.043-1.012 4.723 4.274 0 8.55 0 12.82 0 0 3.15 0 6.298 0 9.449-8.786 0.222-17.555-0.001-26.317-0.676-0.324-3.245-0.996-6.392-2.023-9.449-11.198 11.181-24.47 14.667-39.813 10.461-5.807-2.116-10.082-5.939-12.82-11.473-4.189-13.949-5.766-28.231-4.723-42.851 0.112-6.974 0.224-13.948 0.336-20.918 0.149-1.975 0.485-3.886 1.012-5.734-4.050-0.204-8.101-0.090-12.148 0.336 0-2.923 0-5.85 0-8.773 6.857 0.683 13.379-0.33 19.57-3.035 1.050-0.486 1.724-1.275 2.023-2.363z"></path>
<path d="M893.253 604.229c-1.101 0.991-2.113 2.118-3.035 3.375-5.481 20.565-12.006 40.813-19.57 60.734-1.35 2.699-2.699 5.398-4.050 8.098-0.761-6.274-1.322-12.571-1.687-18.894-2.349-16.618-8.083-31.914-17.207-45.886-5.277-2.914-7.64-1.343-7.086 4.723 0.387 5.191 0.944 10.366 1.687 15.519 3.468 12.035 8.416 23.732 14.848 35.089 1.301 4.401 2.091 8.903 2.363 13.496-1.241 11.708-4.723 22.727-10.461 33.066-19.53 33.241-42.811 63.494-69.843 90.762-0.561 0.465-1.012 0.351-1.35-0.336 0.905-3.4 1.917-6.775 3.035-10.121 13.031-19.495 16.52-40.638 10.461-63.433-4.319-12.395-8.705-24.771-13.16-37.114-1.377-2.417-2.842-4.776-4.387-7.086-2.457-1.241-4.933-1.241-7.422 0-11.101 8.191-18.862 18.874-23.281 32.054-4.251 17.389-2.903 34.26 4.050 50.611 5.549 9.299 12.074 17.85 19.57 25.644 1.262 2.67 2.389 5.37 3.375 8.098-0.021 4.151-0.926 8.198-2.699 12.148-17.844 15.723-36.624 30.231-56.347 43.527-38.586 24.414-80.202 41.736-124.839 51.96-5.807 1.233-11.657 1.909-17.547 2.023 5.12-5.124 10.291-10.29 15.519-15.519 14.826-1.39 28.099-6.567 39.813-15.519 5.84-5.724 11.127-11.906 15.859-18.558 4.024-8.935 8.298-17.708 12.82-26.317 3.003-6.875 5.817-13.846 8.433-20.918 1.222-4.212 2.121-8.484 2.699-12.82 0.007-2.357-1.005-4.157-3.035-5.398-6.789-1.626-13.535-1.405-20.246 0.676-25.997 12.499-43.991 32.297-53.985 59.383-2.896 9.328-5.37 18.773-7.422 28.343-3.973 7.033-8.92 13.335-14.848 18.894-3.783 6.667-9.518 10.378-17.207 11.133-12.083 0.69-24.116 1.477-36.102 2.363-17.886-0.844-35.769-2.077-53.648-3.711-5.171-0.973-10.346-1.877-15.519-2.699 6.886-4.897 13.861-9.624 20.918-14.172 6.149-2.113 11.996-4.812 17.547-8.098 2.562-1.89 4.925-4.022 7.086-6.41 5.233-7.536 9.955-15.405 14.172-23.617 2.14-3.528 2.704-7.239 1.687-11.133-6.743-0.715-12.813 0.973-18.219 5.062-3.832 3.496-7.543 7.093-11.133 10.797-5.67 7.962-10.844 16.284-15.519 24.968-9.758 9.932-21.455 16.46-35.089 19.57-40.855-9.868-79.432-25.272-115.73-46.226-0.676-1.126-1.575-2.023-2.699-2.699 5.528 0.404 10.926-0.387 16.195-2.363 2.992 0.501 5.916 1.29 8.773 2.363 14.268 8.083 28.217 7.519 41.839-1.687 12.667-9.832 25.263-19.838 37.789-30.031 3.51-3.254 4.185-6.965 2.023-11.133-4.325-1.112-8.601-2.349-12.82-3.711-4.67-1.041-9.393-1.713-14.172-2.023-24.806-3.003-43.812 5.885-57.023 26.656-1.351 4.98-3.714 9.367-7.086 13.16-5.541 1.626-11.164 2.867-16.871 3.711-3.014-1.141-6.161-1.93-9.449-2.363-2.685-1.33-5.384-2.678-8.098-4.050-2.579-2.213-5.166-3.9-7.762-5.062-34.846-25.851-65.213-56.218-91.101-91.101-2.646-5.452-6.357-9.946-11.133-13.496-2.003 1.216-3.914 2.563-5.734 4.050-0.463 1.398-0.351 2.746 0.336 4.050 13.377 19.327 27.884 37.775 43.527 55.335 4.778 5.009 9.729 9.732 14.848 14.172 9.055 9.785 16.253 20.803 21.593 33.066 3.526 9.231 7.577 18.225 12.148 26.992 11.183 16.803 25.916 29.508 44.2 38.129 1.951 0.776 3.978 1.112 6.074 1.012 0.109-1.59-0.002-3.164-0.336-4.723-6.298-8.55-12.597-17.092-18.894-25.644-7.112-8.010-15.097-15.094-23.957-21.258-7.448-6.93-12.734-15.145-15.859-24.63 53.221 43.072 113.392 71.077 180.513 84.015 8.213 2.538 14.736 7.368 19.57 14.508 1.998 5.79 4.357 11.419 7.086 16.871 4.619 8.248 10.13 15.784 16.532 22.605 3.094 2.61 6.469 4.865 10.121 6.75 7.931 3.103 16.028 5.581 24.293 7.422 3.584 0.676 7.182 0.897 10.797 0.676 0.801-0.797 1.249-1.809 1.35-3.035-2.334-10.236-5.709-20.13-10.121-29.691-7.039-12.059-17.16-20.271-30.367-24.63-8.199-2.159-16.524-3.954-24.968-5.398-0.709-0.93-1.608-1.605-2.699-2.023 0.336-0.336 0.676-0.676 1.012-1.012 5.67 1.041 11.406 1.823 17.207 2.363 21.818 1.345 43.639 1.345 65.456 0 11.3-1.749 22.657-2.982 34.078-3.711 9.505-0.304 17.375 3.071 23.617 10.121 9.899 15.183 22.383 27.782 37.453 37.789 1.801-0.007 2.7-0.905 2.699-2.699-1.305-9.177-4.793-17.729-10.461-25.644-10.407-10.886-22.89-18.422-37.453-22.605 2.011-0.708 4.038-1.498 6.074-2.363 13.736-2.97 27.232-6.797 40.488-11.473 3.003-0.837 6.038-1.513 9.109-2.023 6.427 0.905 12.613 2.592 18.558 5.062 2.37 1.52 4.837 2.867 7.422 4.050 8.18 7.35 16.728 14.204 25.644 20.582 6.789 3.8 13.982 6.614 21.593 8.433 11.966 1.47 23.889 1.133 35.765-1.012 17.729-4.71 34.152-12.134 49.261-22.269 1.241-1.369 1.581-2.942 1.012-4.723-9.163-8.484-19.288-15.685-30.367-21.593-5.96-3.030-12.148-5.392-18.558-7.086-7.632-1.18-15.277-1.294-22.945-0.336-11.254 3.035-22.052 7.2-32.39 12.484-6.682 2.606-13.428 5.073-20.246 7.422-2.274 0.447-4.523 0.336-6.75-0.336-5.534-1.384-10.933-3.186-16.195-5.398 32.862-14.178 63.683-31.837 92.449-52.972 6.593-2.792 13.343-5.048 20.246-6.75 17.121-3.915 33.092-1.33 47.911 7.762 4.797 4.312 9.746 8.476 14.848 12.484 3.056 1.101 5.080 0.197 6.074-2.699-2.41-7.011-5.224-13.868-8.433-20.582-1.362-1.248-2.599-2.599-3.711-4.050-9.581-6.174-20.042-8.423-31.379-6.75-9.15 2.253-18.261 4.165-27.331 5.734 7.794-6.585 15.441-13.335 22.945-20.246 6.767-7.215 13.517-14.414 20.246-21.593 2.914-2.585 6.067-4.83 9.449-6.75 6.213-3.010 12.735-5.141 19.57-6.41 12.142-0.525 24.286-0.865 36.441-1.012 2.935-0.387 5.856-0.837 8.773-1.35 14.744-5.169 27.228-13.603 37.453-25.304 12.62-16.682 23.193-34.679 31.715-53.985 0.525-1.862 0.189-3.55-1.012-5.062-4.576-0.44-9.077 0.015-13.496 1.35-19.596 6.646-38.722 14.408-57.359 23.281-14.941 9.313-26.635 21.69-35.089 37.114-2.502 4.189-4.865 8.469-7.086 12.82-3.543 2.956-7.475 5.316-11.808 7.086-0.676 0.45-1.35 0.45-2.023 0 37.91-49.558 64.23-104.555 78.953-164.991-0.075-0.634-0.297-1.198-0.676-1.687-3.543-1.936-7.368-2.724-11.473-2.363zM765.712 781.029c-0.676 0.061-1.233-0.168-1.687-0.676-2.942-3.84-5.87-7.664-8.773-11.473-9.549-16.864-11.122-34.411-4.723-52.636 3.929-7.64 8.988-14.386 15.183-20.246-2.806 11.971-4.608 24.231-5.398 36.777 1.209 16.11 3.010 32.19 5.398 48.249zM772.462 696.678c1.073 1.086 1.862 2.434 2.363 4.050 1.97 11.315 4.891 22.344 8.773 33.066 2.227 10.346 2.227 20.689 0 31.043-2.517 8.684-5.445 17.228-8.773 25.644-0.737-3.239-1.634-6.39-2.699-9.449-1.354-9.968-2.706-19.859-4.050-29.691-0.45-11.473-0.45-22.945 0-34.415 1.101-6.829 2.563-13.579 4.387-20.246zM851.414 760.784c8.127-12.956 17.794-24.535 29.016-34.754 4.17-2.646 8.44-5.124 12.82-7.422 12.888-4.973 25.827-9.806 38.801-14.508 1.649-0.776 3.332-1.112 5.062-1.012-19.53 13.232-38.875 26.731-58.035 40.488-9.063 6.053-18.28 11.79-27.668 17.207zM939.815 710.173c-5.445 10.225-11.411 20.125-17.883 29.691-17.396 20.21-39.551 29.995-66.469 29.355 28.269-19.631 56.38-39.308 84.352-59.046zM646.947 803.298c2.259-0.115 4.51 0 6.75 0.336-7.525 5.724-14.383 12.134-20.582 19.231-12.031 15.083-23.73 30.374-35.089 45.886-3.127 3.8-6.502 7.404-10.121 10.797 3.011-24.361 13.697-44.491 32.054-60.395 8.527-6.174 17.524-11.458 26.992-15.859zM654.369 811.396c-5.186 10.25-9.796 20.818-13.833 31.715-3.919 7.47-7.966 14.894-12.148 22.269-9.299 11.906-21.333 19.441-36.102 22.605 14.353-17.951 28.185-36.284 41.501-54.996 4.056-4.287 7.883-8.78 11.473-13.496 2.781-3.124 5.816-5.824 9.109-8.098zM332.485 843.11c4.036-8.873 10.334-15.738 18.894-20.582 5.35-1.726 10.524-3.078 15.519-4.050 7.198-0.45 14.395-0.45 21.593 0 2.756 0.153 5.455 0.608 8.098 1.35-22.030 6.106-43.4 13.868-64.109 23.281zM394.566 828.267c0.929-0.107 1.828 0.007 2.699 0.336-9.208 9.449-19.777 17.092-31.715 22.945-9.43 4.461-19.215 5.473-29.355 3.035-1.504-0.579-2.968-1.254-4.387-2.023 19.942-10.743 40.86-18.841 62.757-24.293zM737.371 893.047c15.034-0.572 28.762 3.368 41.164 11.808 3.596 2.478 7.2 4.948 10.797 7.422-33.152 4.523-66.218 3.847-99.198-2.023 15.083-6.95 30.832-12.688 47.238-17.207zM787.981 921.391c-17.37 8.251-35.697 13.428-54.996 15.519-6.965-1.050-13.936-2.402-20.918-4.050-6.875-4.136-13.961-7.962-21.258-11.473-0.805-0.912-1.702-1.702-2.699-2.363 20.278 2.313 40.638 4 61.071 5.062 12.917-1.148 25.851-2.045 38.801-2.699zM469.472 940.285c15.694 1.112 28.405 8.083 38.129 20.918 3.178 4.697 5.089 9.868 5.734 15.519-0.337 0.69-0.789 0.805-1.35 0.336-13.062-11.398-26.111-22.984-39.14-34.754-0.973-0.98-2.096-1.652-3.375-2.023zM467.445 947.708c12.586 10.34 24.958 20.912 37.114 31.715-15.442-4.312-27.25-13.313-35.429-26.992-0.766-1.513-1.33-3.090-1.687-4.723zM504.561 979.424c0.815 0.289 1.49 0.744 2.023 1.35-1.133 0.143-1.809-0.304-2.023-1.35z"></path>
<path d="M122.618 630.546c3.854-0.826 6.889 0.297 9.109 3.375 0.158 3.592-1.19 6.515-4.050 8.773-3.426 1.027-6.238 0.128-8.433-2.699-0.774-1.53-0.886-3.102-0.336-4.723 1.162-1.712 2.399-3.287 3.711-4.723z"></path>
<path d="M137.463 670.361c6.413-0.815 9.224 1.885 8.433 8.098-1.916 4.183-5.178 5.641-9.785 4.387-2.749-2.57-3.313-5.609-1.687-9.109 0.69-1.477 1.705-2.599 3.035-3.375z"></path>
<path d="M482.292 679.132c-0.765 1.154-1.89 1.605-3.375 1.35 0 7.876 0 15.745 0 23.617 1.124 0 2.25 0 3.375 0-0.219-2.956 0.006-5.885 0.676-8.773 1.535-0.479 3.11-0.815 4.723-1.012 1.23-1.173 2.578-2.189 4.050-3.035 1.007-1.254 1.458-2.721 1.35-4.387 0.238-2.159-0.438-3.961-2.023-5.398-2.73-1.537-5.656-2.321-8.773-2.363zM482.292 683.182c1.814-0.107 3.614 0 5.398 0.336 1.945 1.52 2.392 3.436 1.35 5.734-0.998 0.661-1.899 1.452-2.699 2.363-1.332 0.336-2.68 0.447-4.050 0.336 0-2.92 0-5.85 0-8.773z"></path>
<path d="M517.381 679.132c5.376 5.945 10.662 12.019 15.859 18.219 0.224-5.85 0.45-11.694 0.676-17.547 0.948-0.79 1.735-0.561 2.363 0.676 0.675 7.862 0.898 15.73 0.676 23.617-1.499 0.215-2.736-0.229-3.711-1.35-4.472-5.377-8.971-10.775-13.496-16.195-0.336 5.845-0.45 11.694-0.336 17.547-1.124 0-2.25 0-3.375 0-0.112-7.876 0-15.75 0.336-23.617 0.484-0.365 0.82-0.815 1.012-1.35z"></path>
<path d="M501.862 679.132c-2.478 7.315-5.289 14.514-8.433 21.593-0.331 1.101-0.447 2.227-0.336 3.375 0.965 0.053 1.866-0.168 2.699-0.676 1.031-2.189 1.93-4.44 2.699-6.75 2.891-0.669 5.813-0.897 8.773-0.676 0.447 2.57 1.231 5.048 2.363 7.422 1.444 0.858 2.907 0.858 4.387 0-3.68-7.955-7.051-16.053-10.121-24.293-0.676 0-1.35 0-2.023 0zM502.538 685.205c0.816 2.556 1.944 5.026 3.375 7.422-1.988 0.776-4.011 0.89-6.074 0.336 1.359-2.389 2.258-4.98 2.699-7.762z"></path>
<path d="M544.374 679.132c3.383-0.115 6.754 0 10.121 0.336 0.612 1.148 0.836 2.381 0.676 3.711-2.88 0.204-5.691-0.029-8.433-0.676-0.335 2.242-0.45 4.487-0.336 6.75 2.699 0 5.398 0 8.098 0 0 1.126 0 2.249 0 3.375-2.699 0-5.398 0-8.098 0-0.111 2.935 0.001 5.856 0.336 8.773 2.781-0.876 5.591-0.876 8.433 0 0.504 0.837 0.729 1.734 0.676 2.699-4.274 0-8.55 0-12.82 0-0.39-8.44 0.059-16.77 1.35-24.968z"></path>
<path d="M561.245 679.132c1.024 0.007 1.812 0.457 2.363 1.35 0.336 6.743 0.45 13.489 0.336 20.246 3.181-0.221 6.33 0.007 9.449 0.676 0.559 0.64 0.67 1.316 0.336 2.023-4.325 0.661-8.712 0.882-13.16 0.676-0.21-8.372 0.015-16.703 0.676-24.968z"></path>
<path d="M155.010 707.474c6.393 0.275 8.868 3.536 7.422 9.785-1.968 3.436-4.892 4.561-8.773 3.375-1.012-0.561-1.8-1.35-2.363-2.363-1.343-4.655-0.103-8.251 3.711-10.797z"></path>
</svg>
